<mxfile host="app.diagrams.net" modified="2022-02-08T12:39:25.774Z" agent="5.0 (Windows)" etag="RTehwpaMuUy96JsYqvuq" version="16.5.3" type="github" pages="3">
  <diagram id="r0mKvmXK7QKv8nB3Saxx" name="lesson_1_task_1">
    <mxGraphModel dx="582" dy="1660" grid="1" gridSize="10" guides="1" tooltips="1" connect="1" arrows="1" fold="1" page="1" pageScale="1" pageWidth="827" pageHeight="1169" math="0" shadow="0">
      <root>
        <mxCell id="5ppzitEEjz_DlCFoIOtd-0" />
        <mxCell id="5ppzitEEjz_DlCFoIOtd-1" parent="5ppzitEEjz_DlCFoIOtd-0" />
        <mxCell id="ia4-jZ2tuB4Qk3xpxohp-2" style="edgeStyle=orthogonalEdgeStyle;rounded=0;orthogonalLoop=1;jettySize=auto;html=1;exitX=0.5;exitY=1;exitDx=0;exitDy=0;entryX=0.5;entryY=0;entryDx=0;entryDy=0;" edge="1" parent="5ppzitEEjz_DlCFoIOtd-1" source="ia4-jZ2tuB4Qk3xpxohp-0" target="ia4-jZ2tuB4Qk3xpxohp-1">
          <mxGeometry relative="1" as="geometry" />
        </mxCell>
        <mxCell id="ia4-jZ2tuB4Qk3xpxohp-0" value="Начало" style="ellipse;whiteSpace=wrap;html=1;" vertex="1" parent="5ppzitEEjz_DlCFoIOtd-1">
          <mxGeometry x="354" y="20" width="120" height="60" as="geometry" />
        </mxCell>
        <mxCell id="ia4-jZ2tuB4Qk3xpxohp-4" style="edgeStyle=orthogonalEdgeStyle;rounded=0;orthogonalLoop=1;jettySize=auto;html=1;exitX=0.5;exitY=1;exitDx=0;exitDy=0;entryX=0.5;entryY=0;entryDx=0;entryDy=0;" edge="1" parent="5ppzitEEjz_DlCFoIOtd-1" source="ia4-jZ2tuB4Qk3xpxohp-1" target="ia4-jZ2tuB4Qk3xpxohp-3">
          <mxGeometry relative="1" as="geometry" />
        </mxCell>
        <mxCell id="ia4-jZ2tuB4Qk3xpxohp-1" value="&lt;div&gt;a = 5&lt;/div&gt;&lt;div&gt;b = 6&lt;br&gt;&lt;/div&gt;" style="rounded=0;whiteSpace=wrap;html=1;" vertex="1" parent="5ppzitEEjz_DlCFoIOtd-1">
          <mxGeometry x="354" y="110" width="120" height="60" as="geometry" />
        </mxCell>
        <mxCell id="ia4-jZ2tuB4Qk3xpxohp-6" style="edgeStyle=orthogonalEdgeStyle;rounded=0;orthogonalLoop=1;jettySize=auto;html=1;exitX=0.5;exitY=1;exitDx=0;exitDy=0;entryX=0.5;entryY=0;entryDx=0;entryDy=0;" edge="1" parent="5ppzitEEjz_DlCFoIOtd-1" source="ia4-jZ2tuB4Qk3xpxohp-3" target="ia4-jZ2tuB4Qk3xpxohp-5">
          <mxGeometry relative="1" as="geometry" />
        </mxCell>
        <mxCell id="ia4-jZ2tuB4Qk3xpxohp-3" value="res = a | b" style="rounded=0;whiteSpace=wrap;html=1;" vertex="1" parent="5ppzitEEjz_DlCFoIOtd-1">
          <mxGeometry x="354" y="200" width="120" height="60" as="geometry" />
        </mxCell>
        <mxCell id="ia4-jZ2tuB4Qk3xpxohp-12" style="edgeStyle=orthogonalEdgeStyle;rounded=0;orthogonalLoop=1;jettySize=auto;html=1;exitX=0.5;exitY=1;exitDx=0;exitDy=0;entryX=0.5;entryY=0;entryDx=0;entryDy=0;" edge="1" parent="5ppzitEEjz_DlCFoIOtd-1" source="ia4-jZ2tuB4Qk3xpxohp-5" target="ia4-jZ2tuB4Qk3xpxohp-11">
          <mxGeometry relative="1" as="geometry" />
        </mxCell>
        <mxCell id="ia4-jZ2tuB4Qk3xpxohp-5" value="&lt;div&gt;Вывод&lt;/div&gt;&lt;div&gt;res&lt;br&gt;&lt;/div&gt;" style="shape=parallelogram;perimeter=parallelogramPerimeter;whiteSpace=wrap;html=1;fixedSize=1;" vertex="1" parent="5ppzitEEjz_DlCFoIOtd-1">
          <mxGeometry x="354" y="290" width="120" height="60" as="geometry" />
        </mxCell>
        <mxCell id="ia4-jZ2tuB4Qk3xpxohp-7" value="Побитовое &quot;ИЛИ&quot;" style="strokeWidth=2;html=1;shape=mxgraph.flowchart.annotation_2;align=left;labelPosition=right;pointerEvents=1;" vertex="1" parent="5ppzitEEjz_DlCFoIOtd-1">
          <mxGeometry x="530" y="212.5" width="50" height="35" as="geometry" />
        </mxCell>
        <mxCell id="ia4-jZ2tuB4Qk3xpxohp-10" value="" style="endArrow=none;dashed=1;html=1;rounded=0;entryX=0;entryY=0.5;entryDx=0;entryDy=0;entryPerimeter=0;exitX=1;exitY=0.5;exitDx=0;exitDy=0;" edge="1" parent="5ppzitEEjz_DlCFoIOtd-1" source="ia4-jZ2tuB4Qk3xpxohp-3" target="ia4-jZ2tuB4Qk3xpxohp-7">
          <mxGeometry width="50" height="50" relative="1" as="geometry">
            <mxPoint x="560" y="470" as="sourcePoint" />
            <mxPoint x="610" y="420" as="targetPoint" />
          </mxGeometry>
        </mxCell>
        <mxCell id="ia4-jZ2tuB4Qk3xpxohp-16" style="edgeStyle=orthogonalEdgeStyle;rounded=0;orthogonalLoop=1;jettySize=auto;html=1;exitX=0.5;exitY=1;exitDx=0;exitDy=0;entryX=0.5;entryY=0;entryDx=0;entryDy=0;" edge="1" parent="5ppzitEEjz_DlCFoIOtd-1" source="ia4-jZ2tuB4Qk3xpxohp-11" target="ia4-jZ2tuB4Qk3xpxohp-15">
          <mxGeometry relative="1" as="geometry" />
        </mxCell>
        <mxCell id="ia4-jZ2tuB4Qk3xpxohp-11" value="res = a &amp;amp; b" style="rounded=0;whiteSpace=wrap;html=1;" vertex="1" parent="5ppzitEEjz_DlCFoIOtd-1">
          <mxGeometry x="354" y="380" width="120" height="60" as="geometry" />
        </mxCell>
        <mxCell id="ia4-jZ2tuB4Qk3xpxohp-13" value="Побитовое &quot;И&quot;" style="strokeWidth=2;html=1;shape=mxgraph.flowchart.annotation_2;align=left;labelPosition=right;pointerEvents=1;" vertex="1" parent="5ppzitEEjz_DlCFoIOtd-1">
          <mxGeometry x="530" y="392.5" width="50" height="35" as="geometry" />
        </mxCell>
        <mxCell id="ia4-jZ2tuB4Qk3xpxohp-14" value="" style="endArrow=none;dashed=1;html=1;rounded=0;entryX=0;entryY=0.5;entryDx=0;entryDy=0;entryPerimeter=0;exitX=1;exitY=0.5;exitDx=0;exitDy=0;" edge="1" parent="5ppzitEEjz_DlCFoIOtd-1" target="ia4-jZ2tuB4Qk3xpxohp-13">
          <mxGeometry width="50" height="50" relative="1" as="geometry">
            <mxPoint x="474" y="410" as="sourcePoint" />
            <mxPoint x="610" y="600" as="targetPoint" />
          </mxGeometry>
        </mxCell>
        <mxCell id="ia4-jZ2tuB4Qk3xpxohp-20" style="edgeStyle=orthogonalEdgeStyle;rounded=0;orthogonalLoop=1;jettySize=auto;html=1;exitX=0.5;exitY=1;exitDx=0;exitDy=0;entryX=0.5;entryY=0;entryDx=0;entryDy=0;" edge="1" parent="5ppzitEEjz_DlCFoIOtd-1" source="ia4-jZ2tuB4Qk3xpxohp-15" target="ia4-jZ2tuB4Qk3xpxohp-17">
          <mxGeometry relative="1" as="geometry" />
        </mxCell>
        <mxCell id="ia4-jZ2tuB4Qk3xpxohp-15" value="&lt;div&gt;Вывод&lt;/div&gt;&lt;div&gt;res&lt;br&gt;&lt;/div&gt;" style="shape=parallelogram;perimeter=parallelogramPerimeter;whiteSpace=wrap;html=1;fixedSize=1;" vertex="1" parent="5ppzitEEjz_DlCFoIOtd-1">
          <mxGeometry x="354" y="470" width="120" height="60" as="geometry" />
        </mxCell>
        <mxCell id="ia4-jZ2tuB4Qk3xpxohp-22" style="edgeStyle=orthogonalEdgeStyle;rounded=0;orthogonalLoop=1;jettySize=auto;html=1;exitX=0.5;exitY=1;exitDx=0;exitDy=0;entryX=0.5;entryY=0;entryDx=0;entryDy=0;" edge="1" parent="5ppzitEEjz_DlCFoIOtd-1" source="ia4-jZ2tuB4Qk3xpxohp-17" target="ia4-jZ2tuB4Qk3xpxohp-21">
          <mxGeometry relative="1" as="geometry" />
        </mxCell>
        <mxCell id="ia4-jZ2tuB4Qk3xpxohp-17" value="res = a ^ b" style="rounded=0;whiteSpace=wrap;html=1;" vertex="1" parent="5ppzitEEjz_DlCFoIOtd-1">
          <mxGeometry x="354" y="560" width="120" height="60" as="geometry" />
        </mxCell>
        <mxCell id="ia4-jZ2tuB4Qk3xpxohp-18" value="Побитовое &quot;Исключающее ИЛИ&quot;" style="strokeWidth=2;html=1;shape=mxgraph.flowchart.annotation_2;align=left;labelPosition=right;pointerEvents=1;" vertex="1" parent="5ppzitEEjz_DlCFoIOtd-1">
          <mxGeometry x="530" y="572.5" width="50" height="35" as="geometry" />
        </mxCell>
        <mxCell id="ia4-jZ2tuB4Qk3xpxohp-19" value="" style="endArrow=none;dashed=1;html=1;rounded=0;entryX=0;entryY=0.5;entryDx=0;entryDy=0;entryPerimeter=0;exitX=1;exitY=0.5;exitDx=0;exitDy=0;" edge="1" parent="5ppzitEEjz_DlCFoIOtd-1" target="ia4-jZ2tuB4Qk3xpxohp-18">
          <mxGeometry width="50" height="50" relative="1" as="geometry">
            <mxPoint x="474" y="590" as="sourcePoint" />
            <mxPoint x="610" y="780" as="targetPoint" />
          </mxGeometry>
        </mxCell>
        <mxCell id="ia4-jZ2tuB4Qk3xpxohp-26" style="edgeStyle=orthogonalEdgeStyle;rounded=0;orthogonalLoop=1;jettySize=auto;html=1;exitX=0.5;exitY=1;exitDx=0;exitDy=0;entryX=0.5;entryY=0;entryDx=0;entryDy=0;" edge="1" parent="5ppzitEEjz_DlCFoIOtd-1" source="ia4-jZ2tuB4Qk3xpxohp-21" target="ia4-jZ2tuB4Qk3xpxohp-23">
          <mxGeometry relative="1" as="geometry" />
        </mxCell>
        <mxCell id="ia4-jZ2tuB4Qk3xpxohp-21" value="&lt;div&gt;Вывод&lt;/div&gt;&lt;div&gt;res&lt;br&gt;&lt;/div&gt;" style="shape=parallelogram;perimeter=parallelogramPerimeter;whiteSpace=wrap;html=1;fixedSize=1;" vertex="1" parent="5ppzitEEjz_DlCFoIOtd-1">
          <mxGeometry x="354" y="650" width="120" height="60" as="geometry" />
        </mxCell>
        <mxCell id="ia4-jZ2tuB4Qk3xpxohp-28" style="edgeStyle=orthogonalEdgeStyle;rounded=0;orthogonalLoop=1;jettySize=auto;html=1;exitX=0.5;exitY=1;exitDx=0;exitDy=0;" edge="1" parent="5ppzitEEjz_DlCFoIOtd-1" source="ia4-jZ2tuB4Qk3xpxohp-23" target="ia4-jZ2tuB4Qk3xpxohp-27">
          <mxGeometry relative="1" as="geometry" />
        </mxCell>
        <mxCell id="ia4-jZ2tuB4Qk3xpxohp-23" value="res = a &amp;gt;&amp;gt; 2" style="rounded=0;whiteSpace=wrap;html=1;" vertex="1" parent="5ppzitEEjz_DlCFoIOtd-1">
          <mxGeometry x="354" y="740" width="120" height="60" as="geometry" />
        </mxCell>
        <mxCell id="ia4-jZ2tuB4Qk3xpxohp-24" value="Сдвиг вправо на 2 знака" style="strokeWidth=2;html=1;shape=mxgraph.flowchart.annotation_2;align=left;labelPosition=right;pointerEvents=1;" vertex="1" parent="5ppzitEEjz_DlCFoIOtd-1">
          <mxGeometry x="530" y="752.5" width="50" height="35" as="geometry" />
        </mxCell>
        <mxCell id="ia4-jZ2tuB4Qk3xpxohp-25" value="" style="endArrow=none;dashed=1;html=1;rounded=0;entryX=0;entryY=0.5;entryDx=0;entryDy=0;entryPerimeter=0;exitX=1;exitY=0.5;exitDx=0;exitDy=0;" edge="1" parent="5ppzitEEjz_DlCFoIOtd-1" target="ia4-jZ2tuB4Qk3xpxohp-24">
          <mxGeometry width="50" height="50" relative="1" as="geometry">
            <mxPoint x="474" y="770" as="sourcePoint" />
            <mxPoint x="610" y="960" as="targetPoint" />
          </mxGeometry>
        </mxCell>
        <mxCell id="ia4-jZ2tuB4Qk3xpxohp-32" style="edgeStyle=orthogonalEdgeStyle;rounded=0;orthogonalLoop=1;jettySize=auto;html=1;exitX=0.5;exitY=1;exitDx=0;exitDy=0;entryX=0.5;entryY=0;entryDx=0;entryDy=0;" edge="1" parent="5ppzitEEjz_DlCFoIOtd-1" source="ia4-jZ2tuB4Qk3xpxohp-27" target="ia4-jZ2tuB4Qk3xpxohp-29">
          <mxGeometry relative="1" as="geometry" />
        </mxCell>
        <mxCell id="ia4-jZ2tuB4Qk3xpxohp-27" value="&lt;div&gt;Вывод&lt;/div&gt;&lt;div&gt;res&lt;br&gt;&lt;/div&gt;" style="shape=parallelogram;perimeter=parallelogramPerimeter;whiteSpace=wrap;html=1;fixedSize=1;" vertex="1" parent="5ppzitEEjz_DlCFoIOtd-1">
          <mxGeometry x="354" y="830" width="120" height="60" as="geometry" />
        </mxCell>
        <mxCell id="ia4-jZ2tuB4Qk3xpxohp-34" style="edgeStyle=orthogonalEdgeStyle;rounded=0;orthogonalLoop=1;jettySize=auto;html=1;exitX=0.5;exitY=1;exitDx=0;exitDy=0;entryX=0.5;entryY=0;entryDx=0;entryDy=0;" edge="1" parent="5ppzitEEjz_DlCFoIOtd-1" source="ia4-jZ2tuB4Qk3xpxohp-29" target="ia4-jZ2tuB4Qk3xpxohp-33">
          <mxGeometry relative="1" as="geometry" />
        </mxCell>
        <mxCell id="ia4-jZ2tuB4Qk3xpxohp-29" value="res = a &amp;lt;&amp;lt; 2" style="rounded=0;whiteSpace=wrap;html=1;" vertex="1" parent="5ppzitEEjz_DlCFoIOtd-1">
          <mxGeometry x="354" y="920" width="120" height="60" as="geometry" />
        </mxCell>
        <mxCell id="ia4-jZ2tuB4Qk3xpxohp-30" value="Сдвиг влево на 2 знака" style="strokeWidth=2;html=1;shape=mxgraph.flowchart.annotation_2;align=left;labelPosition=right;pointerEvents=1;" vertex="1" parent="5ppzitEEjz_DlCFoIOtd-1">
          <mxGeometry x="530" y="932.5" width="50" height="35" as="geometry" />
        </mxCell>
        <mxCell id="ia4-jZ2tuB4Qk3xpxohp-31" value="" style="endArrow=none;dashed=1;html=1;rounded=0;entryX=0;entryY=0.5;entryDx=0;entryDy=0;entryPerimeter=0;exitX=1;exitY=0.5;exitDx=0;exitDy=0;" edge="1" parent="5ppzitEEjz_DlCFoIOtd-1" target="ia4-jZ2tuB4Qk3xpxohp-30">
          <mxGeometry width="50" height="50" relative="1" as="geometry">
            <mxPoint x="474" y="950" as="sourcePoint" />
            <mxPoint x="610" y="1140" as="targetPoint" />
          </mxGeometry>
        </mxCell>
        <mxCell id="ia4-jZ2tuB4Qk3xpxohp-37" style="edgeStyle=orthogonalEdgeStyle;rounded=0;orthogonalLoop=1;jettySize=auto;html=1;exitX=0.5;exitY=1;exitDx=0;exitDy=0;entryX=0.5;entryY=0;entryDx=0;entryDy=0;" edge="1" parent="5ppzitEEjz_DlCFoIOtd-1" source="ia4-jZ2tuB4Qk3xpxohp-33" target="ia4-jZ2tuB4Qk3xpxohp-36">
          <mxGeometry relative="1" as="geometry" />
        </mxCell>
        <mxCell id="ia4-jZ2tuB4Qk3xpxohp-33" value="&lt;div&gt;Вывод&lt;/div&gt;&lt;div&gt;res&lt;br&gt;&lt;/div&gt;" style="shape=parallelogram;perimeter=parallelogramPerimeter;whiteSpace=wrap;html=1;fixedSize=1;" vertex="1" parent="5ppzitEEjz_DlCFoIOtd-1">
          <mxGeometry x="354" y="1010" width="120" height="60" as="geometry" />
        </mxCell>
        <mxCell id="ia4-jZ2tuB4Qk3xpxohp-36" value="&lt;div&gt;Конец&lt;/div&gt;" style="ellipse;whiteSpace=wrap;html=1;" vertex="1" parent="5ppzitEEjz_DlCFoIOtd-1">
          <mxGeometry x="354" y="1100" width="120" height="60" as="geometry" />
        </mxCell>
      </root>
    </mxGraphModel>
  </diagram>
  <diagram id="WrIyoc7h8zOfj_UZYoWi" name="lesson_1_task_2">
    <mxGraphModel dx="2062" dy="1140" grid="1" gridSize="10" guides="1" tooltips="1" connect="1" arrows="1" fold="1" page="1" pageScale="1" pageWidth="827" pageHeight="1169" math="0" shadow="0">
      <root>
        <mxCell id="zM0QtX0UoytmACC7-4fc-0" />
        <mxCell id="zM0QtX0UoytmACC7-4fc-1" parent="zM0QtX0UoytmACC7-4fc-0" />
        <mxCell id="zM0QtX0UoytmACC7-4fc-4" style="edgeStyle=orthogonalEdgeStyle;rounded=0;orthogonalLoop=1;jettySize=auto;html=1;exitX=0.5;exitY=1;exitDx=0;exitDy=0;entryX=0.5;entryY=0;entryDx=0;entryDy=0;" edge="1" parent="zM0QtX0UoytmACC7-4fc-1" source="zM0QtX0UoytmACC7-4fc-2" target="zM0QtX0UoytmACC7-4fc-3">
          <mxGeometry relative="1" as="geometry" />
        </mxCell>
        <mxCell id="zM0QtX0UoytmACC7-4fc-2" value="Начало" style="ellipse;whiteSpace=wrap;html=1;" vertex="1" parent="zM0QtX0UoytmACC7-4fc-1">
          <mxGeometry x="354" y="20" width="120" height="60" as="geometry" />
        </mxCell>
        <mxCell id="RvanT8pUqFNKkmKCCHk8-5" style="edgeStyle=orthogonalEdgeStyle;rounded=0;orthogonalLoop=1;jettySize=auto;html=1;exitX=0.5;exitY=1;exitDx=0;exitDy=0;entryX=0.5;entryY=0;entryDx=0;entryDy=0;" edge="1" parent="zM0QtX0UoytmACC7-4fc-1" source="zM0QtX0UoytmACC7-4fc-3" target="RvanT8pUqFNKkmKCCHk8-2">
          <mxGeometry relative="1" as="geometry" />
        </mxCell>
        <mxCell id="zM0QtX0UoytmACC7-4fc-3" value="&lt;div&gt;ввод&lt;/div&gt;&lt;div&gt;x1, y1&lt;br&gt;&lt;/div&gt;" style="shape=parallelogram;perimeter=parallelogramPerimeter;whiteSpace=wrap;html=1;fixedSize=1;" vertex="1" parent="zM0QtX0UoytmACC7-4fc-1">
          <mxGeometry x="354" y="110" width="120" height="60" as="geometry" />
        </mxCell>
        <mxCell id="RvanT8pUqFNKkmKCCHk8-0" value="&lt;div&gt;Ввод координат&lt;/div&gt;&lt;div&gt;первой точки&lt;/div&gt;" style="strokeWidth=2;html=1;shape=mxgraph.flowchart.annotation_2;align=left;labelPosition=right;pointerEvents=1;" vertex="1" parent="zM0QtX0UoytmACC7-4fc-1">
          <mxGeometry x="530" y="122.5" width="50" height="35" as="geometry" />
        </mxCell>
        <mxCell id="RvanT8pUqFNKkmKCCHk8-1" value="" style="endArrow=none;dashed=1;html=1;rounded=0;entryX=0;entryY=0.5;entryDx=0;entryDy=0;entryPerimeter=0;exitX=1;exitY=0.5;exitDx=0;exitDy=0;" edge="1" parent="zM0QtX0UoytmACC7-4fc-1" target="RvanT8pUqFNKkmKCCHk8-0">
          <mxGeometry width="50" height="50" relative="1" as="geometry">
            <mxPoint x="474" y="140" as="sourcePoint" />
            <mxPoint x="610" y="330" as="targetPoint" />
          </mxGeometry>
        </mxCell>
        <mxCell id="RvanT8pUqFNKkmKCCHk8-7" style="edgeStyle=orthogonalEdgeStyle;rounded=0;orthogonalLoop=1;jettySize=auto;html=1;exitX=0.5;exitY=1;exitDx=0;exitDy=0;entryX=0.5;entryY=0;entryDx=0;entryDy=0;" edge="1" parent="zM0QtX0UoytmACC7-4fc-1" source="RvanT8pUqFNKkmKCCHk8-2" target="RvanT8pUqFNKkmKCCHk8-6">
          <mxGeometry relative="1" as="geometry" />
        </mxCell>
        <mxCell id="RvanT8pUqFNKkmKCCHk8-2" value="&lt;div&gt;ввод&lt;/div&gt;&lt;div&gt;x2, y2&lt;br&gt;&lt;/div&gt;" style="shape=parallelogram;perimeter=parallelogramPerimeter;whiteSpace=wrap;html=1;fixedSize=1;" vertex="1" parent="zM0QtX0UoytmACC7-4fc-1">
          <mxGeometry x="354" y="200" width="120" height="60" as="geometry" />
        </mxCell>
        <mxCell id="RvanT8pUqFNKkmKCCHk8-3" value="&lt;div&gt;Ввод координат&lt;/div&gt;&lt;div&gt;второй точки&lt;/div&gt;" style="strokeWidth=2;html=1;shape=mxgraph.flowchart.annotation_2;align=left;labelPosition=right;pointerEvents=1;" vertex="1" parent="zM0QtX0UoytmACC7-4fc-1">
          <mxGeometry x="530" y="212.5" width="50" height="35" as="geometry" />
        </mxCell>
        <mxCell id="RvanT8pUqFNKkmKCCHk8-4" value="" style="endArrow=none;dashed=1;html=1;rounded=0;entryX=0;entryY=0.5;entryDx=0;entryDy=0;entryPerimeter=0;exitX=1;exitY=0.5;exitDx=0;exitDy=0;" edge="1" parent="zM0QtX0UoytmACC7-4fc-1" target="RvanT8pUqFNKkmKCCHk8-3">
          <mxGeometry width="50" height="50" relative="1" as="geometry">
            <mxPoint x="474" y="230" as="sourcePoint" />
            <mxPoint x="610" y="420" as="targetPoint" />
          </mxGeometry>
        </mxCell>
        <mxCell id="RvanT8pUqFNKkmKCCHk8-9" style="edgeStyle=orthogonalEdgeStyle;rounded=0;orthogonalLoop=1;jettySize=auto;html=1;exitX=0.5;exitY=1;exitDx=0;exitDy=0;entryX=0.5;entryY=0;entryDx=0;entryDy=0;" edge="1" parent="zM0QtX0UoytmACC7-4fc-1" source="RvanT8pUqFNKkmKCCHk8-6" target="RvanT8pUqFNKkmKCCHk8-8">
          <mxGeometry relative="1" as="geometry" />
        </mxCell>
        <mxCell id="RvanT8pUqFNKkmKCCHk8-6" value="вычислить k" style="rounded=0;whiteSpace=wrap;html=1;" vertex="1" parent="zM0QtX0UoytmACC7-4fc-1">
          <mxGeometry x="354" y="290" width="120" height="60" as="geometry" />
        </mxCell>
        <mxCell id="RvanT8pUqFNKkmKCCHk8-11" style="edgeStyle=orthogonalEdgeStyle;rounded=0;orthogonalLoop=1;jettySize=auto;html=1;exitX=0.5;exitY=1;exitDx=0;exitDy=0;entryX=0.5;entryY=0;entryDx=0;entryDy=0;" edge="1" parent="zM0QtX0UoytmACC7-4fc-1" source="RvanT8pUqFNKkmKCCHk8-8" target="RvanT8pUqFNKkmKCCHk8-10">
          <mxGeometry relative="1" as="geometry" />
        </mxCell>
        <mxCell id="RvanT8pUqFNKkmKCCHk8-8" value="вычислить b" style="rounded=0;whiteSpace=wrap;html=1;" vertex="1" parent="zM0QtX0UoytmACC7-4fc-1">
          <mxGeometry x="354" y="380" width="120" height="60" as="geometry" />
        </mxCell>
        <mxCell id="RvanT8pUqFNKkmKCCHk8-13" style="edgeStyle=orthogonalEdgeStyle;rounded=0;orthogonalLoop=1;jettySize=auto;html=1;exitX=0.5;exitY=1;exitDx=0;exitDy=0;entryX=0.5;entryY=0;entryDx=0;entryDy=0;" edge="1" parent="zM0QtX0UoytmACC7-4fc-1" source="RvanT8pUqFNKkmKCCHk8-10" target="RvanT8pUqFNKkmKCCHk8-12">
          <mxGeometry relative="1" as="geometry" />
        </mxCell>
        <mxCell id="RvanT8pUqFNKkmKCCHk8-10" value="&lt;div&gt;вывод&lt;/div&gt;&lt;div&gt;&quot;y = kx + b&quot;&lt;br&gt;&lt;/div&gt;" style="shape=parallelogram;perimeter=parallelogramPerimeter;whiteSpace=wrap;html=1;fixedSize=1;" vertex="1" parent="zM0QtX0UoytmACC7-4fc-1">
          <mxGeometry x="354" y="470" width="120" height="60" as="geometry" />
        </mxCell>
        <mxCell id="RvanT8pUqFNKkmKCCHk8-12" value="Конец" style="ellipse;whiteSpace=wrap;html=1;" vertex="1" parent="zM0QtX0UoytmACC7-4fc-1">
          <mxGeometry x="354" y="560" width="120" height="60" as="geometry" />
        </mxCell>
        <mxCell id="RvanT8pUqFNKkmKCCHk8-14" value="k = (y1 - y2) / (x1 - x2)" style="strokeWidth=2;html=1;shape=mxgraph.flowchart.annotation_2;align=left;labelPosition=right;pointerEvents=1;" vertex="1" parent="zM0QtX0UoytmACC7-4fc-1">
          <mxGeometry x="530" y="302.5" width="50" height="35" as="geometry" />
        </mxCell>
        <mxCell id="RvanT8pUqFNKkmKCCHk8-15" value="" style="endArrow=none;dashed=1;html=1;rounded=0;entryX=0;entryY=0.5;entryDx=0;entryDy=0;entryPerimeter=0;exitX=1;exitY=0.5;exitDx=0;exitDy=0;" edge="1" parent="zM0QtX0UoytmACC7-4fc-1" target="RvanT8pUqFNKkmKCCHk8-14">
          <mxGeometry width="50" height="50" relative="1" as="geometry">
            <mxPoint x="474" y="320" as="sourcePoint" />
            <mxPoint x="610" y="510" as="targetPoint" />
          </mxGeometry>
        </mxCell>
        <mxCell id="RvanT8pUqFNKkmKCCHk8-16" value="b = y2 - k * x2" style="strokeWidth=2;html=1;shape=mxgraph.flowchart.annotation_2;align=left;labelPosition=right;pointerEvents=1;" vertex="1" parent="zM0QtX0UoytmACC7-4fc-1">
          <mxGeometry x="530" y="392.5" width="50" height="35" as="geometry" />
        </mxCell>
        <mxCell id="RvanT8pUqFNKkmKCCHk8-17" value="" style="endArrow=none;dashed=1;html=1;rounded=0;entryX=0;entryY=0.5;entryDx=0;entryDy=0;entryPerimeter=0;exitX=1;exitY=0.5;exitDx=0;exitDy=0;" edge="1" parent="zM0QtX0UoytmACC7-4fc-1" target="RvanT8pUqFNKkmKCCHk8-16">
          <mxGeometry width="50" height="50" relative="1" as="geometry">
            <mxPoint x="474" y="410" as="sourcePoint" />
            <mxPoint x="610" y="600" as="targetPoint" />
          </mxGeometry>
        </mxCell>
      </root>
    </mxGraphModel>
  </diagram>
  <diagram id="i4NUi6Hy2-EKJaS_FN3F" name="lesson_1_task_3">
    <mxGraphModel dx="582" dy="1660" grid="1" gridSize="10" guides="1" tooltips="1" connect="1" arrows="1" fold="1" page="1" pageScale="1" pageWidth="827" pageHeight="1169" math="0" shadow="0">
      <root>
        <mxCell id="4v6hwixoYu7PkOEQDYbh-0" />
        <mxCell id="4v6hwixoYu7PkOEQDYbh-1" parent="4v6hwixoYu7PkOEQDYbh-0" />
        <mxCell id="xYb2o44r6uYwruav3VVR-37" style="edgeStyle=orthogonalEdgeStyle;rounded=0;orthogonalLoop=1;jettySize=auto;html=1;exitX=0.5;exitY=1;exitDx=0;exitDy=0;entryX=0.5;entryY=0;entryDx=0;entryDy=0;" edge="1" parent="4v6hwixoYu7PkOEQDYbh-1" source="4v6hwixoYu7PkOEQDYbh-2" target="xYb2o44r6uYwruav3VVR-36">
          <mxGeometry relative="1" as="geometry" />
        </mxCell>
        <mxCell id="4v6hwixoYu7PkOEQDYbh-2" value="Начало" style="ellipse;whiteSpace=wrap;html=1;" vertex="1" parent="4v6hwixoYu7PkOEQDYbh-1">
          <mxGeometry x="354" y="20" width="120" height="60" as="geometry" />
        </mxCell>
        <mxCell id="xYb2o44r6uYwruav3VVR-3" style="edgeStyle=orthogonalEdgeStyle;rounded=0;orthogonalLoop=1;jettySize=auto;html=1;exitX=0.5;exitY=1;exitDx=0;exitDy=0;entryX=0.5;entryY=0;entryDx=0;entryDy=0;" edge="1" parent="4v6hwixoYu7PkOEQDYbh-1" source="4v6hwixoYu7PkOEQDYbh-3" target="xYb2o44r6uYwruav3VVR-2">
          <mxGeometry relative="1" as="geometry" />
        </mxCell>
        <mxCell id="4v6hwixoYu7PkOEQDYbh-3" value="&lt;div&gt;ввод&lt;/div&gt;&lt;div&gt;a, b: int&lt;br&gt;&lt;/div&gt;" style="shape=parallelogram;perimeter=parallelogramPerimeter;whiteSpace=wrap;html=1;fixedSize=1;" vertex="1" parent="4v6hwixoYu7PkOEQDYbh-1">
          <mxGeometry x="354" y="180" width="120" height="60" as="geometry" />
        </mxCell>
        <mxCell id="xYb2o44r6uYwruav3VVR-0" value="&lt;div&gt;Ввод границ для генерации&lt;/div&gt;&lt;div&gt;случайного целого числа&lt;br&gt;&lt;/div&gt;" style="strokeWidth=2;html=1;shape=mxgraph.flowchart.annotation_2;align=left;labelPosition=right;pointerEvents=1;" vertex="1" parent="4v6hwixoYu7PkOEQDYbh-1">
          <mxGeometry x="530" y="192.5" width="50" height="35" as="geometry" />
        </mxCell>
        <mxCell id="xYb2o44r6uYwruav3VVR-1" value="" style="endArrow=none;dashed=1;html=1;rounded=0;entryX=0;entryY=0.5;entryDx=0;entryDy=0;entryPerimeter=0;exitX=1;exitY=0.5;exitDx=0;exitDy=0;" edge="1" parent="4v6hwixoYu7PkOEQDYbh-1" target="xYb2o44r6uYwruav3VVR-0">
          <mxGeometry width="50" height="50" relative="1" as="geometry">
            <mxPoint x="474" y="210" as="sourcePoint" />
            <mxPoint x="610" y="400" as="targetPoint" />
          </mxGeometry>
        </mxCell>
        <mxCell id="xYb2o44r6uYwruav3VVR-7" style="edgeStyle=orthogonalEdgeStyle;rounded=0;orthogonalLoop=1;jettySize=auto;html=1;exitX=0.5;exitY=1;exitDx=0;exitDy=0;entryX=0.5;entryY=0;entryDx=0;entryDy=0;" edge="1" parent="4v6hwixoYu7PkOEQDYbh-1" source="xYb2o44r6uYwruav3VVR-2" target="xYb2o44r6uYwruav3VVR-6">
          <mxGeometry relative="1" as="geometry" />
        </mxCell>
        <mxCell id="xYb2o44r6uYwruav3VVR-2" value="res = random.randint(a, b)" style="rounded=0;whiteSpace=wrap;html=1;" vertex="1" parent="4v6hwixoYu7PkOEQDYbh-1">
          <mxGeometry x="320" y="260" width="190" height="60" as="geometry" />
        </mxCell>
        <mxCell id="xYb2o44r6uYwruav3VVR-6" value="&lt;div&gt;вывод&lt;/div&gt;&lt;div&gt;res: int&lt;br&gt;&lt;/div&gt;" style="shape=parallelogram;perimeter=parallelogramPerimeter;whiteSpace=wrap;html=1;fixedSize=1;" vertex="1" parent="4v6hwixoYu7PkOEQDYbh-1">
          <mxGeometry x="354" y="340" width="120" height="60" as="geometry" />
        </mxCell>
        <mxCell id="xYb2o44r6uYwruav3VVR-8" style="edgeStyle=orthogonalEdgeStyle;rounded=0;orthogonalLoop=1;jettySize=auto;html=1;exitX=0.5;exitY=1;exitDx=0;exitDy=0;entryX=0.5;entryY=0;entryDx=0;entryDy=0;" edge="1" parent="4v6hwixoYu7PkOEQDYbh-1" target="xYb2o44r6uYwruav3VVR-10">
          <mxGeometry relative="1" as="geometry">
            <mxPoint x="414" y="400" as="sourcePoint" />
          </mxGeometry>
        </mxCell>
        <mxCell id="xYb2o44r6uYwruav3VVR-9" style="edgeStyle=orthogonalEdgeStyle;rounded=0;orthogonalLoop=1;jettySize=auto;html=1;exitX=0.5;exitY=1;exitDx=0;exitDy=0;entryX=0.5;entryY=0;entryDx=0;entryDy=0;" edge="1" parent="4v6hwixoYu7PkOEQDYbh-1" source="xYb2o44r6uYwruav3VVR-10" target="xYb2o44r6uYwruav3VVR-14">
          <mxGeometry relative="1" as="geometry" />
        </mxCell>
        <mxCell id="xYb2o44r6uYwruav3VVR-10" value="&lt;div&gt;ввод&lt;/div&gt;&lt;div&gt;a, b: float&lt;br&gt;&lt;/div&gt;" style="shape=parallelogram;perimeter=parallelogramPerimeter;whiteSpace=wrap;html=1;fixedSize=1;" vertex="1" parent="4v6hwixoYu7PkOEQDYbh-1">
          <mxGeometry x="354" y="420" width="120" height="60" as="geometry" />
        </mxCell>
        <mxCell id="xYb2o44r6uYwruav3VVR-11" value="&lt;div&gt;Ввод границ для генерации&lt;/div&gt;&lt;div&gt;случайного вещественного числа&lt;br&gt;&lt;/div&gt;" style="strokeWidth=2;html=1;shape=mxgraph.flowchart.annotation_2;align=left;labelPosition=right;pointerEvents=1;" vertex="1" parent="4v6hwixoYu7PkOEQDYbh-1">
          <mxGeometry x="530" y="432.5" width="50" height="35" as="geometry" />
        </mxCell>
        <mxCell id="xYb2o44r6uYwruav3VVR-12" value="" style="endArrow=none;dashed=1;html=1;rounded=0;entryX=0;entryY=0.5;entryDx=0;entryDy=0;entryPerimeter=0;exitX=1;exitY=0.5;exitDx=0;exitDy=0;" edge="1" parent="4v6hwixoYu7PkOEQDYbh-1" target="xYb2o44r6uYwruav3VVR-11">
          <mxGeometry width="50" height="50" relative="1" as="geometry">
            <mxPoint x="474" y="450" as="sourcePoint" />
            <mxPoint x="610" y="640" as="targetPoint" />
          </mxGeometry>
        </mxCell>
        <mxCell id="xYb2o44r6uYwruav3VVR-13" style="edgeStyle=orthogonalEdgeStyle;rounded=0;orthogonalLoop=1;jettySize=auto;html=1;exitX=0.5;exitY=1;exitDx=0;exitDy=0;entryX=0.5;entryY=0;entryDx=0;entryDy=0;" edge="1" parent="4v6hwixoYu7PkOEQDYbh-1" source="xYb2o44r6uYwruav3VVR-14" target="xYb2o44r6uYwruav3VVR-15">
          <mxGeometry relative="1" as="geometry" />
        </mxCell>
        <mxCell id="xYb2o44r6uYwruav3VVR-14" value="res = random.uniform(a, b)" style="rounded=0;whiteSpace=wrap;html=1;" vertex="1" parent="4v6hwixoYu7PkOEQDYbh-1">
          <mxGeometry x="320" y="500" width="190" height="60" as="geometry" />
        </mxCell>
        <mxCell id="xYb2o44r6uYwruav3VVR-15" value="&lt;div&gt;вывод&lt;/div&gt;&lt;div&gt;res: float&lt;br&gt;&lt;/div&gt;" style="shape=parallelogram;perimeter=parallelogramPerimeter;whiteSpace=wrap;html=1;fixedSize=1;" vertex="1" parent="4v6hwixoYu7PkOEQDYbh-1">
          <mxGeometry x="354" y="580" width="120" height="60" as="geometry" />
        </mxCell>
        <mxCell id="xYb2o44r6uYwruav3VVR-17" style="edgeStyle=orthogonalEdgeStyle;rounded=0;orthogonalLoop=1;jettySize=auto;html=1;exitX=0.5;exitY=1;exitDx=0;exitDy=0;entryX=0.5;entryY=0;entryDx=0;entryDy=0;" edge="1" parent="4v6hwixoYu7PkOEQDYbh-1" target="xYb2o44r6uYwruav3VVR-19">
          <mxGeometry relative="1" as="geometry">
            <mxPoint x="414" y="640" as="sourcePoint" />
          </mxGeometry>
        </mxCell>
        <mxCell id="xYb2o44r6uYwruav3VVR-18" style="edgeStyle=orthogonalEdgeStyle;rounded=0;orthogonalLoop=1;jettySize=auto;html=1;exitX=0.5;exitY=1;exitDx=0;exitDy=0;entryX=0.5;entryY=0;entryDx=0;entryDy=0;" edge="1" parent="4v6hwixoYu7PkOEQDYbh-1" source="xYb2o44r6uYwruav3VVR-19">
          <mxGeometry relative="1" as="geometry">
            <mxPoint x="415" y="740" as="targetPoint" />
          </mxGeometry>
        </mxCell>
        <mxCell id="xYb2o44r6uYwruav3VVR-19" value="&lt;div&gt;ввод&lt;/div&gt;&lt;div&gt;a, b: char&lt;br&gt;&lt;/div&gt;" style="shape=parallelogram;perimeter=parallelogramPerimeter;whiteSpace=wrap;html=1;fixedSize=1;" vertex="1" parent="4v6hwixoYu7PkOEQDYbh-1">
          <mxGeometry x="354" y="660" width="120" height="60" as="geometry" />
        </mxCell>
        <mxCell id="xYb2o44r6uYwruav3VVR-20" value="&lt;div&gt;Ввод границ для генерации&lt;/div&gt;&lt;div&gt;случайного символа.&lt;/div&gt;&lt;div&gt;Работаем в поддиапазоне &quot;a..z&quot;&lt;br&gt;&lt;/div&gt;" style="strokeWidth=2;html=1;shape=mxgraph.flowchart.annotation_2;align=left;labelPosition=right;pointerEvents=1;" vertex="1" parent="4v6hwixoYu7PkOEQDYbh-1">
          <mxGeometry x="530" y="672.5" width="50" height="35" as="geometry" />
        </mxCell>
        <mxCell id="xYb2o44r6uYwruav3VVR-21" value="" style="endArrow=none;dashed=1;html=1;rounded=0;entryX=0;entryY=0.5;entryDx=0;entryDy=0;entryPerimeter=0;exitX=1;exitY=0.5;exitDx=0;exitDy=0;" edge="1" parent="4v6hwixoYu7PkOEQDYbh-1" target="xYb2o44r6uYwruav3VVR-20">
          <mxGeometry width="50" height="50" relative="1" as="geometry">
            <mxPoint x="474" y="690" as="sourcePoint" />
            <mxPoint x="610" y="880" as="targetPoint" />
          </mxGeometry>
        </mxCell>
        <mxCell id="xYb2o44r6uYwruav3VVR-31" value="res = chr(random.randint(ord(a), ord(b)))" style="rounded=0;whiteSpace=wrap;html=1;" vertex="1" parent="4v6hwixoYu7PkOEQDYbh-1">
          <mxGeometry x="280" y="740" width="270" height="60" as="geometry" />
        </mxCell>
        <mxCell id="xYb2o44r6uYwruav3VVR-32" style="edgeStyle=orthogonalEdgeStyle;rounded=0;orthogonalLoop=1;jettySize=auto;html=1;exitX=0.5;exitY=1;exitDx=0;exitDy=0;entryX=0.5;entryY=0;entryDx=0;entryDy=0;" edge="1" parent="4v6hwixoYu7PkOEQDYbh-1" target="xYb2o44r6uYwruav3VVR-33">
          <mxGeometry relative="1" as="geometry">
            <mxPoint x="416" y="800" as="sourcePoint" />
          </mxGeometry>
        </mxCell>
        <mxCell id="xYb2o44r6uYwruav3VVR-33" value="&lt;div&gt;вывод&lt;/div&gt;&lt;div&gt;res: str&lt;br&gt;&lt;/div&gt;" style="shape=parallelogram;perimeter=parallelogramPerimeter;whiteSpace=wrap;html=1;fixedSize=1;" vertex="1" parent="4v6hwixoYu7PkOEQDYbh-1">
          <mxGeometry x="354" y="820" width="120" height="60" as="geometry" />
        </mxCell>
        <mxCell id="xYb2o44r6uYwruav3VVR-34" style="edgeStyle=orthogonalEdgeStyle;rounded=0;orthogonalLoop=1;jettySize=auto;html=1;exitX=0.5;exitY=1;exitDx=0;exitDy=0;entryX=0.5;entryY=0;entryDx=0;entryDy=0;" edge="1" parent="4v6hwixoYu7PkOEQDYbh-1">
          <mxGeometry relative="1" as="geometry">
            <mxPoint x="415" y="880" as="sourcePoint" />
            <mxPoint x="415" y="900" as="targetPoint" />
          </mxGeometry>
        </mxCell>
        <mxCell id="xYb2o44r6uYwruav3VVR-35" value="Конец" style="ellipse;whiteSpace=wrap;html=1;" vertex="1" parent="4v6hwixoYu7PkOEQDYbh-1">
          <mxGeometry x="354" y="900" width="120" height="60" as="geometry" />
        </mxCell>
        <mxCell id="xYb2o44r6uYwruav3VVR-38" style="edgeStyle=orthogonalEdgeStyle;rounded=0;orthogonalLoop=1;jettySize=auto;html=1;exitX=0.5;exitY=1;exitDx=0;exitDy=0;entryX=0.5;entryY=0;entryDx=0;entryDy=0;" edge="1" parent="4v6hwixoYu7PkOEQDYbh-1" source="xYb2o44r6uYwruav3VVR-36" target="4v6hwixoYu7PkOEQDYbh-3">
          <mxGeometry relative="1" as="geometry" />
        </mxCell>
        <mxCell id="xYb2o44r6uYwruav3VVR-36" value="import random" style="rounded=0;whiteSpace=wrap;html=1;" vertex="1" parent="4v6hwixoYu7PkOEQDYbh-1">
          <mxGeometry x="354" y="100" width="120" height="60" as="geometry" />
        </mxCell>
        <mxCell id="xYb2o44r6uYwruav3VVR-39" value="Импортируем необходимые методы" style="strokeWidth=2;html=1;shape=mxgraph.flowchart.annotation_2;align=left;labelPosition=right;pointerEvents=1;" vertex="1" parent="4v6hwixoYu7PkOEQDYbh-1">
          <mxGeometry x="530" y="112.5" width="50" height="35" as="geometry" />
        </mxCell>
        <mxCell id="xYb2o44r6uYwruav3VVR-40" value="" style="endArrow=none;dashed=1;html=1;rounded=0;entryX=0;entryY=0.5;entryDx=0;entryDy=0;entryPerimeter=0;exitX=1;exitY=0.5;exitDx=0;exitDy=0;" edge="1" parent="4v6hwixoYu7PkOEQDYbh-1" target="xYb2o44r6uYwruav3VVR-39">
          <mxGeometry width="50" height="50" relative="1" as="geometry">
            <mxPoint x="474" y="130" as="sourcePoint" />
            <mxPoint x="610" y="320" as="targetPoint" />
          </mxGeometry>
        </mxCell>
      </root>
    </mxGraphModel>
  </diagram>
</mxfile>
